Coordinates
version=1
nRows=17
nColumns=36
inDegrees=yes

Units are S.I. units (second, meters, Newtons, ...)
If the header above contains a line with 'inDegrees', this indicates whether rotational values are in degrees (yes) or radians (no).

endheader
time	pelvis_tilt	pelvis_list	pelvis_rotation	pelvis_tx	pelvis_ty	pelvis_tz	hip_flexion_r	hip_adduction_r	hip_rotation_r	knee_angle_r	knee_angle_r_beta	ankle_angle_r	subtalar_angle_r	mtp_angle_r	hip_flexion_l	hip_adduction_l	hip_rotation_l	knee_angle_l	knee_angle_l_beta	ankle_angle_l	subtalar_angle_l	mtp_angle_l	lumbar_extension	lumbar_bending	lumbar_rotation	arm_flex_r	arm_add_r	arm_rot_r	elbow_flex_r	pro_sup_r	arm_flex_l	arm_add_l	arm_rot_l	elbow_flex_l	pro_sup_l
      4.33333330	      5.30961377	      5.54604164	      2.30296185	      0.19957146	      0.91137150	     -0.11259234	     17.19726285	     -1.75674488	     -3.47904302	     35.99633031	      0.62825448	     14.76015615	      2.82342236	     -7.49999986	     41.86312067	      0.61281339	     -3.82685700	     17.00382653	      0.29677276	    -18.42238018	     -9.60318278	     -7.49999986	     -8.21161869	     -2.05438007	      2.80566110	     38.02327000	      3.45229305	     67.18504478	    134.45820720	     87.38332811	     45.27256351	      9.66112933	     66.72963590	    126.14023390	     63.25964323
      4.35000000	      4.79782177	      5.00138854	      2.62196073	      0.19921124	      0.91580414	     -0.11306323	     15.67067206	     -1.18107413	     -4.35280694	     32.00805976	      0.55864603	     13.66711120	      3.91076375	     -7.49999986	     42.06085690	      0.29532810	     -3.63559944	     17.38485172	      0.30342290	    -17.78204757	     -9.09642182	     -7.49999986	     -7.23259602	     -1.39157422	      2.90800597	     38.29630322	      2.90498328	     66.35440406	    134.74258865	     87.47145957	     45.58073954	     10.03109180	     66.25253776	    125.81300388	     63.18004111
      4.36666670	      4.66112211	      4.92101817	      2.38185463	      0.20353519	      0.92797602	     -0.11720118	     13.94987126	     -1.13195778	     -4.51641867	     28.63441721	      0.49976486	     11.35755942	      3.89703898	     -7.49999986	     41.19147898	      0.31832886	     -3.99656429	     17.37562937	      0.30326194	    -17.09982631	     -9.17588590	     -7.49999986	     -6.36355059	     -1.03716785	      3.21821233	     38.13327855	      2.57260887	     65.45208683	    134.92624705	     86.29825680	     45.39774984	     10.07169277	     65.69427120	    125.76577132	     63.05140592
      4.38333330	      4.77380061	      4.88226281	      1.76224637	      0.19851968	      0.94037141	     -0.11900770	     12.33538887	     -1.07178032	     -4.37765119	     25.32138114	      0.44194147	      8.54294052	      5.22119896	     -7.49999986	     40.13345296	      0.07928386	     -4.61613166	     17.15897350	      0.29948058	    -17.28246454	    -10.15060371	     -7.49999986	     -6.17563556	     -0.64382342	      3.49544725	     38.15090387	      2.55950116	     65.16900346	    134.89490416	     86.53190974	     44.94407269	     10.00394118	     65.18358240	    125.78835802	     63.13450715
      4.40000000	      4.83107145	      5.14750721	      1.62759319	      0.19912674	      0.94442161	     -0.11941484	     10.89658435	     -1.35436768	     -4.44901037	     22.30624860	      0.38931748	      6.10431559	      5.86519434	     -7.49999986	     38.71086081	      0.35888148	     -5.35857420	     16.11609731	      0.28127896	    -16.98172256	    -10.51526963	     -7.49999986	     -6.00300394	     -0.65226473	      3.56186868	     38.08097126	      2.53185951	     64.60596599	    134.48813449	     85.85575071	     44.55744878	     10.00810982	     64.72876715	    125.76388849	     63.09053799
      4.41666670	      4.73381600	      5.33700607	      1.03952905	      0.19531382	      0.94466804	     -0.11515035	     10.39417011	     -1.41203100	     -4.09677105	     20.50330911	      0.35785025	      4.38784987	      6.02344129	     -7.49999986	     37.97539314	      0.13074908	     -5.64705334	     15.86039940	      0.27681619	    -15.88104289	     -9.92184253	     -7.49999986	     -5.78831326	     -0.80726517	      3.78184284	     38.31253707	      2.43329859	     63.61916481	    134.21617220	     85.98254959	     44.46732228	      9.78113331	     64.03159044	    125.75722643	     63.15422245
      4.43333330	      4.81393438	      5.61994589	      1.18371202	      0.20552554	      0.94827502	     -0.11686019	      9.34495336	     -1.79486259	     -4.33116328	     19.14522760	      0.33414726	      3.27115084	      5.98608018	     -7.49999986	     36.72779625	      0.40443430	     -5.14441042	     15.71697051	      0.27431288	    -14.58473304	     -9.54795554	     -7.49999986	     -5.19302709	     -1.06685814	      3.82926040	     38.14242647	      2.05060339	     62.68991802	    133.89460227	     85.97065129	     44.09656615	      9.63218567	     63.68358632	    125.45110458	     63.21076889
      4.45000000	      4.78752927	      5.71587104	      1.11300945	      0.19971117	      0.94959707	     -0.11886977	      8.52692923	     -1.91204284	     -4.25482633	     17.36547458	      0.30308471	      2.46944483	      6.00849425	     -7.49999986	     36.11852138	      0.41742218	     -5.49854243	     15.70120832	      0.27403778	    -13.24488874	     -8.23371645	     -7.49999986	     -4.73932938	     -1.23837976	      3.88968298	     38.28217372	      2.09057475	     63.10450351	    134.16790783	     86.05380017	     44.13577179	      9.60918269	     63.61319945	    124.89581706	     63.49016290
      4.46666670	      4.67503351	      5.87519554	      1.30284127	      0.20491533	      0.95249770	     -0.11701393	      7.02613591	     -1.92429891	     -4.29636239	     14.52619112	      0.25352986	      2.20749457	      6.54078154	     -7.49999986	     35.17686778	      0.50522548	     -5.58133397	     15.24533282	      0.26608125	    -12.57805882	     -7.24240948	     -7.49999986	     -4.04104238	     -1.72071214	      3.85395174	     37.82702742	      2.06710728	     63.59078271	    134.27882778	     85.58387834	     44.24892651	      9.73390542	     63.69162819	    124.24427779	     63.84504193
      4.48333330	      4.32374840	      5.78121502	      1.38881283	      0.20487975	      0.95226057	     -0.11668399	      6.15066057	     -1.63561836	     -4.34302799	     12.38176074	      0.21610249	      1.78582963	      6.86860643	     -7.49999986	     34.74436837	      0.32197485	     -5.93990745	     15.03253072	      0.26236716	    -12.54536474	     -7.04347465	     -7.49999986	     -3.25809140	     -1.72436305	      3.72773343	     37.28736397	      2.14003092	     64.37577827	    134.34295544	     85.70896735	     44.25503112	      9.91959940	     63.95528715	    123.87557152	     63.96564716
      4.50000000	      4.42152855	      5.80367383	      1.52838007	      0.20476466	      0.95209704	     -0.11739389	      4.95015168	     -1.52420144	     -4.49357588	     10.34096081	      0.18048381	      1.58697399	      7.03809271	     -7.49999986	     34.31279966	      0.32568105	     -6.48367225	     15.30914278	      0.26719495	    -12.69881046	     -6.93182408	     -7.49999986	     -3.08089183	     -1.92433953	      3.62780838	     37.20827997	      2.01601404	     64.92250398	    134.52232796	     85.98792918	     44.46463449	     10.12939652	     64.20014094	    123.45962977	     64.27029982
      4.51666670	      4.64580078	      5.83716030	      1.24952926	      0.20916749	      0.95318078	     -0.12034752	      3.70978553	     -1.61314657	     -4.73522957	      8.99113406	      0.15692489	      1.08900152	      6.84675468	     -7.49999987	     33.40043551	      0.41113523	     -7.32950002	     14.97833642	      0.26142129	    -12.85913518	     -7.09798039	     -7.49999987	     -2.68541562	     -1.74918013	      3.27486653	     37.21000202	      2.19277028	     65.55212423	    134.16716626	     87.63909053	     44.15829943	      9.72194360	     63.78772144	    123.20566035	     66.49554998
      4.53333330	      4.61218894	      5.66954360	      0.64832538	      0.19854743	      0.94908340	     -0.11930612	      3.87265283	     -1.44588422	     -4.79355039	      8.71259675	      0.15206350	      0.94155085	      6.69576692	     -7.49999987	     33.51716577	      0.09739856	     -8.14708849	     14.74242973	      0.25730394	    -13.35618727	     -7.34728352	     -7.49999987	     -2.55057196	     -1.33955817	      3.15132542	     37.85581104	      2.27125867	     65.81913477	    134.09326469	     87.69483723	     44.41332209	      9.47380662	     63.51098676	    123.06986360	     66.51331666
      4.55000000	      4.68570530	      5.40868409	      0.46365616	      0.19827587	      0.94953058	     -0.11873238	      3.62048392	     -1.09170302	     -4.47098425	      7.97554194	      0.13919947	      0.88439494	      5.83471774	     -7.49999987	     33.36373689	     -0.01796156	     -8.32303703	     14.76817467	      0.25775327	    -14.02900469	     -7.91373457	     -7.49999987	     -2.40358647	     -0.63552568	      2.38997318	     38.46104925	      2.56541907	     66.21027390	    133.34300001	     85.32746005	     44.22624909	      8.71577058	     62.66520872	    123.30928865	     66.03668316
      4.56666670	      4.46612791	      5.38218535	      0.36082670	      0.19862949	      0.95108532	     -0.11901265	      3.43335710	     -0.92752104	     -4.37128022	      6.98469734	      0.12190597	      1.30642826	      5.97528997	     -7.49999987	     33.31816676	     -0.10933906	     -8.87357830	     14.64648408	      0.25562937	    -14.53388139	     -7.46359124	     -7.49999987	     -1.84340633	     -0.35386204	      2.45626508	     38.64853130	      2.44669843	     65.91139553	    133.04647708	     84.20971466	     43.95391688	      8.82305291	     62.74506332	    123.41562798	     65.71562205
      4.58333330	      4.46950734	      5.33590463	      0.04842934	      0.20342412	      0.94938126	     -0.12211503	      3.09050050	     -0.96384219	     -4.63562957	      6.59239756	      0.11505904	      1.67302792	      5.86520848	     -7.49999987	     32.86386237	     -0.16790457	     -9.14155637	     14.73574307	      0.25718723	    -14.62872955	     -7.50226792	     -7.49999987	     -1.38715754	     -0.05477835	      2.22814923	     38.75447634	      2.40216188	     65.81133733	    132.90726696	     84.28176900	     43.74149442	      8.85077116	     62.82278221	    123.24506808	     65.73563798
      4.60000000	      4.57437167	      5.27227717	      0.01081791	      0.19862161	      0.95116564	     -0.11923758	      2.74801044	     -0.79996416	     -4.85347820	      6.06817918	      0.10590971	      2.23994920	      6.92448274	     -7.49999987	     32.54874806	     -0.27624971	     -9.07532486	     15.14189625	      0.26427594	    -14.85557824	     -7.32868888	     -7.49999987	     -1.26134275	      0.24548221	      1.59910871	     39.11100840	      2.77906922	     65.60988330	    132.00936300	     85.47657713	     43.29618571	      8.72194384	     62.71575676	    123.22518927	     66.06715599
